<?xml version="1.0" encoding="UTF-8" standalone="no"?>
<!DOCTYPE svg PUBLIC "-//W3C//DTD SVG 1.0//EN" "http://www.w3.org/TR/2001/REC-SVG-20010904/DTD/svg10.dtd">
<!-- Generated by Microsoft Visio 11.0, SVG Export, v1.0 http2.svg Page-1 -->
<svg xmlns="http://www.w3.org/2000/svg" xmlns:xlink="http://www.w3.org/1999/xlink" xmlns:ev="http://www.w3.org/2001/xml-events"
		xmlns:v="http://schemas.microsoft.com/visio/2003/SVGExtensions/" width="5.39158in" height="1.79846in"
		viewBox="0 0 388.194 129.489" xml:space="preserve" color-interpolation-filters="sRGB" class="st6">
	<v:documentProperties v:langID="1033" v:metric="true" v:viewMarkup="false">
		<v:userDefs>
			<v:ud v:nameU="msvSubprocessMaster" v:prompt="" v:val="VT4(Rectangle)"/>
			<v:ud v:nameU="msvNoAutoConnect" v:val="VT0(1):26"/>
		</v:userDefs>
	</v:documentProperties>

	<style type="text/css">
	<![CDATA[
		.st1 {visibility:visible}
		.st2 {fill:#cdcdcd;fill-opacity:0.5;stroke:#cdcdcd;stroke-linecap:round;stroke-linejoin:round;stroke-opacity:0.5;stroke-width:0.25}
		.st3 {fill:url(#grad30-6);stroke:#404040;stroke-linecap:round;stroke-linejoin:round;stroke-width:0.25}
		.st4 {fill:#000000;font-family:Calibri;font-size:1.00001em}
		.st5 {font-size:1em}
		.st6 {fill:none;fill-rule:evenodd;font-size:12px;overflow:visible;stroke-linecap:square;stroke-miterlimit:3}
	]]>
	</style>

	<defs id="Patterns_And_Gradients">
		<linearGradient id="grad30-6" v:fillPattern="30" v:foreground="#f0f0f0" v:background="#ffffff" x1="0" y1="1" x2="0" y2="0">
			<stop offset="0" style="stop-color:#f0f0f0;stop-opacity:1"/>
			<stop offset="1" style="stop-color:#ffffff;stop-opacity:1"/>
		</linearGradient>
	</defs>
	<g v:mID="0" v:index="1" v:groupContext="foregroundPage">
		<v:userDefs>
			<v:ud v:nameU="msvThemeColors" v:val="VT0(36):26"/>
			<v:ud v:nameU="msvThemeEffects" v:val="VT0(16):26"/>
			<v:ud v:nameU="msvThemeOrder" v:val="VT0(0):26"/>
		</v:userDefs>
		<title>Page-1</title>
		<v:pageProperties v:drawingScale="0.0393701" v:pageScale="0.0393701" v:drawingUnits="24" v:shadowOffsetX="8.50394"
				v:shadowOffsetY="-8.50394"/>
		<v:layer v:name="Flowchart" v:index="0"/>
		<v:layer v:name="Connector" v:index="1"/>
		<g id="shape1-1" v:mID="1" v:groupContext="shape" transform="translate(18.25,-19.69)">
			<title>Rounded rectangle</title>
			<desc>Asiakas (web-selain)</desc>
			<v:userDefs>
				<v:ud v:nameU="visVersion" v:val="VT0(14):26"/>
				<v:ud v:nameU="msvThemeColors" v:val="VT0(36):26"/>
				<v:ud v:nameU="msvThemeEffects" v:val="VT0(16):26"/>
			</v:userDefs>
			<v:textBlock v:margins="rect(4,4,4,4)" v:tabSpace="42.5197"/>
			<v:textRect cx="40.4813" cy="83.7147" width="80.97" height="91.5494"/>
			<g id="shadow1-2" v:groupContext="shadow" v:shadowOffsetX="1.44" v:shadowOffsetY="-1.44" v:shadowType="1"
					transform="matrix(1,0,0,1,1.44,1.44)" class="st1">
				<path d="M66.79 129.49 A14.1733 14.1733 -180 0 0 80.96 115.32 L80.96 52.11 A14.1733 14.1733 -180 0 0 66.79 37.94
							 L14.17 37.94 A14.1733 14.1733 -180 0 0 0 52.11 L0 115.32 A14.1733 14.1733 -180 0 0 14.17 129.49 L66.79
							 129.49 Z" class="st2"/>
			</g>
			<path d="M66.79 129.49 A14.1733 14.1733 -180 0 0 80.96 115.32 L80.96 52.11 A14.1733 14.1733 -180 0 0 66.79 37.94 L14.17
						 37.94 A14.1733 14.1733 -180 0 0 0 52.11 L0 115.32 A14.1733 14.1733 -180 0 0 14.17 129.49 L66.79 129.49 Z"
					class="st3"/>
			<text x="22.46" y="80.11" class="st4" v:langID="1035"><v:paragraph v:horizAlign="1"/><v:tabList/>Asiakas<v:lf/><tspan
						x="10.47" dy="1.2em" class="st5">(</tspan>web-selain)</text>		</g>
		<g id="shape2-9" v:mID="2" v:groupContext="shape" transform="translate(283.465,-23.9596)">
			<title>Rounded rectangle.28</title>
			<desc>Palvelin</desc>
			<v:userDefs>
				<v:ud v:nameU="visVersion" v:val="VT0(14):26"/>
				<v:ud v:nameU="msvThemeColors" v:val="VT0(36):26"/>
				<v:ud v:nameU="msvThemeEffects" v:val="VT0(16):26"/>
			</v:userDefs>
			<v:textBlock v:margins="rect(4,4,4,4)" v:tabSpace="42.5197"/>
			<v:textRect cx="42.5197" cy="85.8495" width="85.04" height="87.2797"/>
			<g id="shadow2-10" v:groupContext="shadow" v:shadowOffsetX="1.44" v:shadowOffsetY="-1.44" v:shadowType="1"
					transform="matrix(1,0,0,1,1.44,1.44)" class="st1">
				<path d="M70.87 129.49 A14.1733 14.1733 -180 0 0 85.04 115.32 L85.04 56.38 A14.1733 14.1733 -180 0 0 70.87 42.21
							 L14.17 42.21 A14.1733 14.1733 -180 0 0 -0 56.38 L0 115.32 A14.1733 14.1733 -180 0 0 14.17 129.49 L70.87
							 129.49 Z" class="st2"/>
			</g>
			<path d="M70.87 129.49 A14.1733 14.1733 -180 0 0 85.04 115.32 L85.04 56.38 A14.1733 14.1733 -180 0 0 70.87 42.21 L14.17
						 42.21 A14.1733 14.1733 -180 0 0 -0 56.38 L0 115.32 A14.1733 14.1733 -180 0 0 14.17 129.49 L70.87 129.49
						 Z" class="st3"/>
			<text x="23.57" y="89.45" class="st4" v:langID="1035"><v:paragraph v:horizAlign="1"/><v:tabList/>Palvelin</text>		</g>
		<g id="shape6-15" v:mID="6" v:groupContext="shape" transform="translate(290.551,-56.5404) scale(-1,1)">
			<title>45 degree single</title>
			<desc>HTTP-pyyntö</desc>
			<v:userDefs>
				<v:ud v:nameU="visVersion" v:val="VT0(14):26"/>
				<v:ud v:nameU="msvThemeColors" v:val="VT0(36):26"/>
				<v:ud v:nameU="msvThemeEffects" v:val="VT0(16):26"/>
			</v:userDefs>
			<v:textBlock v:margins="rect(4,4,4,4)" v:tabSpace="42.5197"/>
			<v:textRect cx="99.9213" cy="103.978" width="199.85" height="51.0236"/>
			<g id="shadow6-16" v:groupContext="shadow" v:shadowOffsetX="1.44" v:shadowOffsetY="-1.44" v:shadowType="1"
					transform="matrix(1,0,0,1,-1.44,1.44)" class="st1">
				<path d="M0 103.98 L25.51 78.47 L25.51 95.3 L199.84 95.3 L199.84 112.65 L25.51 112.65 L25.51 129.49 L0 103.98 Z"
						class="st2"/>
			</g>
			<path d="M0 103.98 L25.51 78.47 L25.51 95.3 L199.84 95.3 L199.84 112.65 L25.51 112.65 L25.51 129.49 L0 103.98 Z"
					class="st3"/>
			<text x="-131.35" y="107.58" transform="scale(-1,1)" class="st4" v:langID="1035"><v:paragraph v:horizAlign="1"/><v:tabList/>HTTP-pyyntö</text>		</g>
		<g id="shape8-21" v:mID="8" v:groupContext="shape" transform="translate(90.7087,193.934) scale(1,-1)">
			<title>45 degree single.8</title>
			<desc>HTTP-vastaus</desc>
			<v:userDefs>
				<v:ud v:nameU="visVersion" v:val="VT0(14):26"/>
				<v:ud v:nameU="msvThemeColors" v:val="VT0(36):26"/>
				<v:ud v:nameU="msvThemeEffects" v:val="VT0(16):26"/>
			</v:userDefs>
			<v:textBlock v:margins="rect(4,4,4,4)" v:tabSpace="42.5197"/>
			<v:textRect cx="99.2126" cy="106.812" width="198.43" height="45.3543"/>
			<g id="shadow8-22" v:groupContext="shadow" v:shadowOffsetX="1.44" v:shadowOffsetY="-1.44" v:shadowType="1"
					transform="matrix(1,0,0,1,1.44,-1.44)" class="st1">
				<path d="M0 106.81 L22.68 84.14 L22.68 99.1 L198.43 99.1 L198.43 114.52 L22.68 114.52 L22.68 129.49 L0 106.81 Z"
						class="st2"/>
			</g>
			<path d="M0 106.81 L22.68 84.14 L22.68 99.1 L198.43 99.1 L198.43 114.52 L22.68 114.52 L22.68 129.49 L0 106.81 Z"
					class="st3"/>
			<text x="66.38" y="-103.21" transform="scale(1,-1)" class="st4" v:langID="1035"><v:paragraph v:horizAlign="1"/><v:tabList/>HTTP-vastaus</text>		</g>
	</g>
</svg>
