<?xml version="1.0" encoding="UTF-8" standalone="no"?>
<!DOCTYPE svg PUBLIC "-//W3C//DTD SVG 1.0//EN" "http://www.w3.org/TR/2001/REC-SVG-20010904/DTD/svg10.dtd">
<!-- Generated by Microsoft Visio 11.0, SVG Export, v1.0 kerrokset.svg Page-1 -->
<svg xmlns="http://www.w3.org/2000/svg" xmlns:xlink="http://www.w3.org/1999/xlink" xmlns:ev="http://www.w3.org/2001/xml-events"
		xmlns:v="http://schemas.microsoft.com/visio/2003/SVGExtensions/" width="4.48742in" height="5.16984in"
		viewBox="0 0 323.095 372.228" xml:space="preserve" color-interpolation-filters="sRGB" class="st11">
	<v:documentProperties v:langID="1033" v:metric="true" v:viewMarkup="false">
		<v:userDefs>
			<v:ud v:nameU="msvSubprocessMaster" v:prompt="" v:val="VT4(Rectangle)"/>
			<v:ud v:nameU="msvNoAutoConnect" v:val="VT0(1):26"/>
		</v:userDefs>
	</v:documentProperties>

	<style type="text/css">
	<![CDATA[
		.st1 {visibility:visible}
		.st2 {fill:#cdcdcd;fill-opacity:0.5;stroke:#cdcdcd;stroke-linecap:round;stroke-linejoin:round;stroke-opacity:0.5;stroke-width:0.25}
		.st3 {fill:url(#grad30-6);stroke:#404040;stroke-linecap:round;stroke-linejoin:round;stroke-width:0.25}
		.st4 {fill:#000000;font-family:Calibri;font-size:1.99999em}
		.st5 {fill:url(#grad30-31);stroke:#404040;stroke-linecap:round;stroke-linejoin:round;stroke-width:0.25}
		.st6 {fill:#000000;font-family:Calibri;font-size:1.5em}
		.st7 {fill:#000000;font-family:Calibri;font-size:1.33333em}
		.st8 {fill:url(#grad30-50);stroke:#404040;stroke-linecap:round;stroke-linejoin:round;stroke-width:0.25}
		.st9 {font-size:1em}
		.st10 {stroke:#404040;stroke-linecap:round;stroke-linejoin:round;stroke-width:3}
		.st11 {fill:none;fill-rule:evenodd;font-size:12px;overflow:visible;stroke-linecap:square;stroke-miterlimit:3}
	]]>
	</style>

	<defs id="Patterns_And_Gradients">
		<linearGradient id="grad30-6" v:fillPattern="30" v:foreground="#f0f0f0" v:background="#ffffff" x1="0" y1="1" x2="0" y2="0">
			<stop offset="0" style="stop-color:#f0f0f0;stop-opacity:1"/>
			<stop offset="1" style="stop-color:#ffffff;stop-opacity:1"/>
		</linearGradient>
		<linearGradient id="grad30-31" v:fillPattern="30" v:foreground="#a7b96f" v:background="#b3c283" x1="0" y1="1" x2="0" y2="0">
			<stop offset="0" style="stop-color:#a7b96f;stop-opacity:1"/>
			<stop offset="1" style="stop-color:#b3c283;stop-opacity:1"/>
		</linearGradient>
		<linearGradient id="grad30-50" v:fillPattern="30" v:foreground="#568cbe" v:background="#6b9bc7" x1="0" y1="1" x2="0" y2="0">
			<stop offset="0" style="stop-color:#568cbe;stop-opacity:1"/>
			<stop offset="1" style="stop-color:#6b9bc7;stop-opacity:1"/>
		</linearGradient>
	</defs>
	<g v:mID="0" v:index="1" v:groupContext="foregroundPage">
		<v:userDefs>
			<v:ud v:nameU="msvThemeColors" v:val="VT0(36):26"/>
			<v:ud v:nameU="msvThemeEffects" v:val="VT0(16):26"/>
			<v:ud v:nameU="msvThemeOrder" v:val="VT0(0):26"/>
		</v:userDefs>
		<title>Page-1</title>
		<v:pageProperties v:drawingScale="0.0393701" v:pageScale="0.0393701" v:drawingUnits="24" v:shadowOffsetX="8.50394"
				v:shadowOffsetY="-8.50394"/>
		<v:layer v:name="Connector" v:index="0"/>
		<g id="shape1-1" v:mID="1" v:groupContext="shape" transform="translate(18.25,-184.548)">
			<title>Rectangle</title>
			<desc>Sovelluskerros</desc>
			<v:userDefs>
				<v:ud v:nameU="visVersion" v:val="VT0(14):26"/>
				<v:ud v:nameU="msvThemeColors" v:val="VT0(36):26"/>
				<v:ud v:nameU="msvThemeEffects" v:val="VT0(16):26"/>
			</v:userDefs>
			<v:textBlock v:margins="rect(4,4,4,4)" v:tabSpace="42.5197"/>
			<v:textRect cx="141.732" cy="347.289" width="283.47" height="49.879"/>
			<g id="shadow1-2" v:groupContext="shadow" v:shadowOffsetX="1.44" v:shadowOffsetY="-1.44" v:shadowType="1"
					transform="matrix(1,0,0,1,1.44,1.44)" class="st1">
				<rect x="0" y="322.349" width="283.465" height="49.879" class="st2"/>
			</g>
			<rect x="0" y="322.349" width="283.465" height="49.879" class="st3"/>
			<text x="71.18" y="354.49" class="st4" v:langID="1035"><v:paragraph v:horizAlign="1"/><v:tabList/>Sovelluskerros</text>		</g>
		<g id="shape2-8" v:mID="2" v:groupContext="shape" transform="translate(19.94,-130.466)">
			<title>Rectangle.2</title>
			<desc>Kuljetuskerros</desc>
			<v:userDefs>
				<v:ud v:nameU="visVersion" v:val="VT0(14):26"/>
				<v:ud v:nameU="msvThemeColors" v:val="VT0(36):26"/>
				<v:ud v:nameU="msvThemeEffects" v:val="VT0(16):26"/>
			</v:userDefs>
			<v:textBlock v:margins="rect(4,4,4,4)" v:tabSpace="42.5197"/>
			<v:textRect cx="141.732" cy="346.492" width="283.47" height="51.4724"/>
			<g id="shadow2-9" v:groupContext="shadow" v:shadowOffsetX="1.44" v:shadowOffsetY="-1.44" v:shadowType="1"
					transform="matrix(1,0,0,1,1.44,1.44)" class="st1">
				<rect x="0" y="320.756" width="283.465" height="51.4724" class="st2"/>
			</g>
			<rect x="0" y="320.756" width="283.465" height="51.4724" class="st3"/>
			<text x="71.77" y="353.69" class="st4" v:langID="1035"><v:paragraph v:horizAlign="1"/><v:tabList/>Kuljetuskerros</text>		</g>
		<g id="shape3-14" v:mID="3" v:groupContext="shape" transform="translate(19.94,-76.3829)">
			<title>Rectangle.3</title>
			<desc>Verkkokerros</desc>
			<v:userDefs>
				<v:ud v:nameU="visVersion" v:val="VT0(14):26"/>
				<v:ud v:nameU="msvThemeColors" v:val="VT0(36):26"/>
				<v:ud v:nameU="msvThemeEffects" v:val="VT0(16):26"/>
			</v:userDefs>
			<v:textBlock v:margins="rect(4,4,4,4)" v:tabSpace="42.5197"/>
			<v:textRect cx="141.732" cy="346.492" width="283.47" height="51.4724"/>
			<g id="shadow3-15" v:groupContext="shadow" v:shadowOffsetX="1.44" v:shadowOffsetY="-1.44" v:shadowType="1"
					transform="matrix(1,0,0,1,1.44,1.44)" class="st1">
				<rect x="0" y="320.756" width="283.465" height="51.4724" class="st2"/>
			</g>
			<rect x="0" y="320.756" width="283.465" height="51.4724" class="st3"/>
			<text x="76.72" y="353.69" class="st4" v:langID="1035"><v:paragraph v:horizAlign="1"/><v:tabList/>Verkkokerros</text>		</g>
		<g id="shape4-20" v:mID="4" v:groupContext="shape" transform="translate(19.94,-19.69)">
			<title>Rectangle.4</title>
			<desc>Fyysinen kerros</desc>
			<v:userDefs>
				<v:ud v:nameU="visVersion" v:val="VT0(14):26"/>
				<v:ud v:nameU="msvThemeColors" v:val="VT0(36):26"/>
				<v:ud v:nameU="msvThemeEffects" v:val="VT0(16):26"/>
			</v:userDefs>
			<v:textBlock v:margins="rect(4,4,4,4)" v:tabSpace="42.5197"/>
			<v:textRect cx="141.732" cy="346.492" width="283.47" height="51.4724"/>
			<g id="shadow4-21" v:groupContext="shadow" v:shadowOffsetX="1.44" v:shadowOffsetY="-1.44" v:shadowType="1"
					transform="matrix(1,0,0,1,1.44,1.44)" class="st1">
				<rect x="0" y="320.756" width="283.465" height="51.4724" class="st2"/>
			</g>
			<rect x="0" y="320.756" width="283.465" height="51.4724" class="st3"/>
			<text x="65.8" y="353.69" class="st4" v:langID="1035"><v:paragraph v:horizAlign="1"/><v:tabList/>Fyysinen kerros</text>		</g>
		<g id="shape5-26" v:mID="5" v:groupContext="shape" transform="translate(237.402,-134.942)">
			<title>Circle</title>
			<desc>TCP</desc>
			<v:userDefs>
				<v:ud v:nameU="visVersion" v:val="VT0(14):26"/>
				<v:ud v:nameU="msvThemeColors" v:val="VT0(36):26"/>
				<v:ud v:nameU="msvThemeEffects" v:val="VT0(16):26"/>
			</v:userDefs>
			<v:textBlock v:margins="rect(4,4,4,4)" v:tabSpace="42.5197"/>
			<v:textRect cx="21.2598" cy="350.969" width="37.21" height="31.8898"/>
			<g id="shadow5-27" v:groupContext="shadow" v:shadowOffsetX="1.44" v:shadowOffsetY="-1.44" v:shadowType="1"
					transform="matrix(1,0,0,1,1.44,1.44)" class="st1">
				<path d="M0 350.97 A21.2598 21.2598 0 0 1 42.52 350.97 A21.2598 21.2598 0 1 1 0 350.97 Z" class="st2"/>
			</g>
			<path d="M0 350.97 A21.2598 21.2598 0 0 1 42.52 350.97 A21.2598 21.2598 0 1 1 0 350.97 Z" class="st5"/>
			<text x="7.43" y="356.37" class="st6" v:langID="1035"><v:paragraph v:horizAlign="1"/><v:tabList/>TCP</text>		</g>
		<g id="shape6-33" v:mID="6" v:groupContext="shape" transform="translate(237.402,-80.8593)">
			<title>Circle.6</title>
			<desc>IP</desc>
			<v:userDefs>
				<v:ud v:nameU="visVersion" v:val="VT0(14):26"/>
				<v:ud v:nameU="msvThemeColors" v:val="VT0(36):26"/>
				<v:ud v:nameU="msvThemeEffects" v:val="VT0(16):26"/>
			</v:userDefs>
			<v:textBlock v:margins="rect(4,4,4,4)" v:tabSpace="42.5197"/>
			<v:textRect cx="21.2598" cy="350.969" width="37.21" height="31.8898"/>
			<g id="shadow6-34" v:groupContext="shadow" v:shadowOffsetX="1.44" v:shadowOffsetY="-1.44" v:shadowType="1"
					transform="matrix(1,0,0,1,1.44,1.44)" class="st1">
				<path d="M0 350.97 A21.2598 21.2598 0 0 1 42.52 350.97 A21.2598 21.2598 0 1 1 0 350.97 Z" class="st2"/>
			</g>
			<path d="M0 350.97 A21.2598 21.2598 0 0 1 42.52 350.97 A21.2598 21.2598 0 1 1 0 350.97 Z" class="st5"/>
			<text x="14.34" y="356.37" class="st6" v:langID="1035"><v:paragraph v:horizAlign="1"/><v:tabList/>IP</text>		</g>
		<g id="shape7-39" v:mID="7" v:groupContext="shape" transform="translate(233.858,-184.548)">
			<title>Circle.7</title>
			<desc>HTTP</desc>
			<v:userDefs>
				<v:ud v:nameU="visVersion" v:val="VT0(14):26"/>
				<v:ud v:nameU="msvThemeColors" v:val="VT0(36):26"/>
				<v:ud v:nameU="msvThemeEffects" v:val="VT0(16):26"/>
			</v:userDefs>
			<v:textBlock v:margins="rect(4,4,4,4)" v:tabSpace="42.5197"/>
			<v:textRect cx="24.8031" cy="347.425" width="43.41" height="37.2047"/>
			<g id="shadow7-40" v:groupContext="shadow" v:shadowOffsetX="1.44" v:shadowOffsetY="-1.44" v:shadowType="1"
					transform="matrix(1,0,0,1,1.44,1.44)" class="st1">
				<path d="M0 347.43 A24.8031 24.8031 0 0 1 49.61 347.43 A24.8031 24.8031 0 0 1 0 347.43 Z" class="st2"/>
			</g>
			<path d="M0 347.43 A24.8031 24.8031 0 0 1 49.61 347.43 A24.8031 24.8031 0 0 1 0 347.43 Z" class="st5"/>
			<text x="7.89" y="352.23" class="st7" v:langID="1035"><v:paragraph v:horizAlign="1"/><v:tabList/>HTTP</text>		</g>
		<g id="shape8-45" v:mID="8" v:groupContext="shape" transform="translate(99.0374,-262.561)">
			<title>Rounded rectangle</title>
			<desc>Web-sovellus</desc>
			<v:userDefs>
				<v:ud v:nameU="visVersion" v:val="VT0(14):26"/>
				<v:ud v:nameU="msvThemeColors" v:val="VT0(36):26"/>
				<v:ud v:nameU="msvThemeEffects" v:val="VT0(16):26"/>
			</v:userDefs>
			<v:textBlock v:margins="rect(4,4,4,4)" v:tabSpace="42.5197"/>
			<v:textRect cx="60.9449" cy="326.52" width="121.89" height="91.4173"/>
			<g id="shadow8-46" v:groupContext="shadow" v:shadowOffsetX="1.44" v:shadowOffsetY="-1.44" v:shadowType="1"
					transform="matrix(1,0,0,1,1.44,1.44)" class="st1">
				<path d="M107.72 372.23 A14.1733 14.1733 -180 0 0 121.89 358.06 L121.89 294.98 A14.1733 14.1733 -180 0 0 107.72 280.81
							 L14.17 280.81 A14.1733 14.1733 -180 0 0 -0 294.98 L0 358.06 A14.1733 14.1733 -180 0 0 14.17 372.23 L107.72
							 372.23 Z" class="st2"/>
			</g>
			<path d="M107.72 372.23 A14.1733 14.1733 -180 0 0 121.89 358.06 L121.89 294.98 A14.1733 14.1733 -180 0 0 107.72 280.81
						 L14.17 280.81 A14.1733 14.1733 -180 0 0 -0 294.98 L0 358.06 A14.1733 14.1733 -180 0 0 14.17 372.23 L107.72
						 372.23 Z" class="st8"/>
			<text x="34.32" y="319.32" class="st4" v:langID="1035"><v:paragraph v:horizAlign="1"/><v:tabList/>Web-<tspan x="22.03"
						dy="1.2em" class="st9">sovellus</tspan></text>		</g>
		<g id="shape9-53" v:mID="9" v:groupContext="shape" v:layerMember="0" transform="translate(152.896,-262.561)">
			<title>Dynamic connector</title>
			<v:userDefs>
				<v:ud v:nameU="visVersion" v:val="VT0(14):26"/>
				<v:ud v:nameU="msvThemeColors" v:val="VT0(36):26"/>
				<v:ud v:nameU="msvThemeEffects" v:val="VT0(16):26"/>
			</v:userDefs>
			<path d="M7.09 372.23 L7.09 400.36" class="st10"/>
		</g>
	</g>
</svg>
