<?xml version="1.0" encoding="UTF-8" standalone="no"?>
<!DOCTYPE svg PUBLIC "-//W3C//DTD SVG 1.0//EN" "http://www.w3.org/TR/2001/REC-SVG-20010904/DTD/svg10.dtd">
<!-- Generated by Microsoft Visio 11.0, SVG Export, v1.0 webapp2.svg Page-1 -->
<svg xmlns="http://www.w3.org/2000/svg" xmlns:xlink="http://www.w3.org/1999/xlink" xmlns:ev="http://www.w3.org/2001/xml-events"
		xmlns:v="http://schemas.microsoft.com/visio/2003/SVGExtensions/" width="5.94133in" height="4.15772in"
		viewBox="0 0 427.776 299.356" xml:space="preserve" color-interpolation-filters="sRGB" class="st11">
	<v:documentProperties v:langID="1033" v:metric="true" v:viewMarkup="false">
		<v:userDefs>
			<v:ud v:nameU="msvSubprocessMaster" v:prompt="" v:val="VT4(Rectangle)"/>
			<v:ud v:nameU="msvNoAutoConnect" v:val="VT0(1):26"/>
		</v:userDefs>
	</v:documentProperties>

	<style type="text/css">
	<![CDATA[
		.st1 {fill:none;stroke:none;stroke-linecap:round;stroke-linejoin:round;stroke-width:0.25}
		.st2 {fill:#000000;font-family:Calibri;font-size:1.5em}
		.st3 {visibility:visible}
		.st4 {fill:#cdcdcd;fill-opacity:0.5;stroke:#cdcdcd;stroke-linecap:round;stroke-linejoin:round;stroke-opacity:0.5;stroke-width:0.25}
		.st5 {fill:url(#grad30-12);stroke:#404040;stroke-linecap:round;stroke-linejoin:round;stroke-width:0.25}
		.st6 {fill:#000000;font-family:Calibri;font-size:1.16666em}
		.st7 {marker-end:url(#mrkr5-25);stroke:#404040;stroke-linecap:round;stroke-linejoin:round;stroke-width:3}
		.st8 {fill:#404040;fill-opacity:1;stroke:#404040;stroke-opacity:1;stroke-width:0.48076923076923}
		.st9 {fill:#ffffff;stroke:none;stroke-linecap:butt;stroke-width:7.2}
		.st10 {fill:#000000;font-family:Calibri;font-size:0.833336em}
		.st11 {fill:none;fill-rule:evenodd;font-size:12px;overflow:visible;stroke-linecap:square;stroke-miterlimit:3}
	]]>
	</style>

	<defs id="Patterns_And_Gradients">
		<linearGradient id="grad30-12" v:fillPattern="30" v:foreground="#f0f0f0" v:background="#ffffff" x1="0" y1="1" x2="0" y2="0">
			<stop offset="0" style="stop-color:#f0f0f0;stop-opacity:1"/>
			<stop offset="1" style="stop-color:#ffffff;stop-opacity:1"/>
		</linearGradient>
	</defs>
	<defs id="Markers">
		<g id="lend5">
			<path d="M 2 1 L 0 0 L 1.98117 -0.993387 C 1.67173 -0.364515 1.67301 0.372641 1.98465 1.00043 " style="stroke:none"/>
		</g>
		<marker id="mrkr5-25" class="st8" v:arrowType="5" v:arrowSize="3" v:setback="3.64" refX="-3.64" orient="auto"
				markerUnits="strokeWidth" overflow="visible">
			<use xlink:href="#lend5" transform="scale(-2.08,-2.08) "/>
		</marker>
	</defs>
	<g v:mID="0" v:index="1" v:groupContext="foregroundPage">
		<v:userDefs>
			<v:ud v:nameU="msvThemeColors" v:val="VT0(36):26"/>
			<v:ud v:nameU="msvThemeEffects" v:val="VT0(16):26"/>
			<v:ud v:nameU="msvThemeOrder" v:val="VT0(0):26"/>
		</v:userDefs>
		<title>Page-1</title>
		<v:pageProperties v:drawingScale="0.0393701" v:pageScale="0.0393701" v:drawingUnits="24" v:shadowOffsetX="8.50394"
				v:shadowOffsetY="-8.50394"/>
		<v:layer v:name="Connector" v:index="0"/>
		<g id="shape1-1" v:mID="1" v:groupContext="shape" transform="translate(18.25,-262.556)">
			<title>Sheet.1</title>
			<desc>Selain</desc>
			<v:userDefs>
				<v:ud v:nameU="msvThemeColors" v:val="VT0(36):26"/>
				<v:ud v:nameU="msvThemeEffects" v:val="VT0(16):26"/>
			</v:userDefs>
			<v:textBlock v:margins="rect(4,4,4,4)" v:tabSpace="42.5197"/>
			<v:textRect cx="52" cy="291.356" width="104" height="16"/>
			<rect x="0" y="283.356" width="104" height="16" class="st1"/>
			<text x="30.22" y="296.76" class="st2" v:langID="1035"><v:paragraph v:horizAlign="1"/><v:tabList/>Selain</text>		</g>
		<g id="shape2-4" v:mID="2" v:groupContext="shape" transform="translate(305.526,-262.556)">
			<title>Sheet.2</title>
			<desc>Palvelin</desc>
			<v:userDefs>
				<v:ud v:nameU="msvThemeColors" v:val="VT0(36):26"/>
				<v:ud v:nameU="msvThemeEffects" v:val="VT0(16):26"/>
			</v:userDefs>
			<v:textBlock v:margins="rect(4,4,4,4)" v:tabSpace="42.5197"/>
			<v:textRect cx="52" cy="291.356" width="104" height="16"/>
			<rect x="0" y="283.356" width="104" height="16" class="st1"/>
			<text x="23.57" y="296.76" class="st2" v:langID="1035"><v:paragraph v:horizAlign="1"/><v:tabList/>Palvelin</text>		</g>
		<g id="shape3-7" v:mID="3" v:groupContext="shape" transform="translate(42.5197,-28.3465)">
			<title>Rounded rectangle</title>
			<desc>emails.html</desc>
			<v:userDefs>
				<v:ud v:nameU="visVersion" v:val="VT0(14):26"/>
				<v:ud v:nameU="msvThemeColors" v:val="VT0(36):26"/>
				<v:ud v:nameU="msvThemeEffects" v:val="VT0(16):26"/>
			</v:userDefs>
			<v:textBlock v:margins="rect(4,4,4,4)" v:tabSpace="42.5197"/>
			<v:textRect cx="38.2677" cy="214.317" width="76.54" height="170.079"/>
			<g id="shadow3-8" v:groupContext="shadow" v:shadowOffsetX="1.44" v:shadowOffsetY="-1.44" v:shadowType="1"
					transform="matrix(1,0,0,1,1.44,1.44)" class="st3">
				<path d="M62.36 299.36 A14.1733 14.1733 -180 0 0 76.54 285.18 L76.54 143.45 A14.1733 14.1733 -180 0 0 62.36 129.28
							 L14.17 129.28 A14.1733 14.1733 -180 0 0 0 143.45 L0 285.18 A14.1733 14.1733 -180 0 0 14.17 299.36 L62.36
							 299.36 Z" class="st4"/>
			</g>
			<path d="M62.36 299.36 A14.1733 14.1733 -180 0 0 76.54 285.18 L76.54 143.45 A14.1733 14.1733 -180 0 0 62.36 129.28 L14.17
						 129.28 A14.1733 14.1733 -180 0 0 0 143.45 L0 285.18 A14.1733 14.1733 -180 0 0 14.17 299.36 L62.36 299.36
						 Z" class="st5"/>
			<text x="4.9" y="218.52" class="st6" v:langID="1035"><v:paragraph v:horizAlign="1"/><v:tabList/>emails.html</text>		</g>
		<g id="shape4-14" v:mID="4" v:groupContext="shape" transform="translate(314.03,-29.6113)">
			<title>Rounded rectangle.4</title>
			<v:userDefs>
				<v:ud v:nameU="visVersion" v:val="VT0(14):26"/>
				<v:ud v:nameU="msvThemeColors" v:val="VT0(36):26"/>
				<v:ud v:nameU="msvThemeEffects" v:val="VT0(16):26"/>
			</v:userDefs>
			<g id="shadow4-15" v:groupContext="shadow" v:shadowOffsetX="1.44" v:shadowOffsetY="-1.44" v:shadowType="1"
					transform="matrix(1,0,0,1,1.44,1.44)" class="st3">
				<path d="M62.36 299.36 A14.1733 14.1733 -180 0 0 76.54 285.18 L76.54 92.43 A14.1733 14.1733 -180 0 0 62.36 78.25
							 L14.17 78.25 A14.1733 14.1733 -180 0 0 -0 92.43 L0 285.18 A14.1733 14.1733 -180 0 0 14.17 299.36 L62.36
							 299.36 Z" class="st4"/>
			</g>
			<path d="M62.36 299.36 A14.1733 14.1733 -180 0 0 76.54 285.18 L76.54 92.43 A14.1733 14.1733 -180 0 0 62.36 78.25 L14.17
						 78.25 A14.1733 14.1733 -180 0 0 -0 92.43 L0 285.18 A14.1733 14.1733 -180 0 0 14.17 299.36 L62.36 299.36
						 Z" class="st5"/>
		</g>
		<g id="shape5-19" v:mID="5" v:groupContext="shape" v:layerMember="0" transform="translate(107.1,-262.556)">
			<title>Dynamic connector</title>
			<desc>GET /emails.html</desc>
			<v:userDefs>
				<v:ud v:nameU="visVersion" v:val="VT0(14):26"/>
				<v:ud v:nameU="msvThemeColors" v:val="VT0(36):26"/>
				<v:ud v:nameU="msvThemeEffects" v:val="VT0(16):26"/>
			</v:userDefs>
			<v:textBlock v:margins="rect(4,4,4,4)" v:tabSpace="42.5197"/>
			<v:textRect cx="103.465" cy="319.45" width="108.97" height="24.8035"/>
			<path d="M0 299.36 L196.21 337.46" class="st7"/>
			<rect v:rectContext="textBkgnd" x="54.5674" y="311.051" width="97.7945" height="16.8" class="st9"/>
			<text x="54.57" y="323.65" class="st6" v:langID="1035"><v:paragraph v:horizAlign="1"/><v:tabList/>GET /emails.html</text>		</g>
		<g id="shape6-28" v:mID="6" v:groupContext="shape" v:layerMember="0" transform="translate(314.03,-211.029)">
			<title>Dynamic connector.6</title>
			<v:userDefs>
				<v:ud v:nameU="visVersion" v:val="VT0(14):26"/>
				<v:ud v:nameU="msvThemeColors" v:val="VT0(36):26"/>
				<v:ud v:nameU="msvThemeEffects" v:val="VT0(16):26"/>
			</v:userDefs>
			<path d="M0 299.36 L-184.23 332.69" class="st7"/>
		</g>
		<g id="shape7-34" v:mID="7" v:groupContext="shape" v:layerMember="0" transform="translate(142.978,-137.366)">
			<title>Dynamic connector.7</title>
			<desc>GET /email123.json</desc>
			<v:userDefs>
				<v:ud v:nameU="visVersion" v:val="VT0(14):26"/>
				<v:ud v:nameU="msvThemeColors" v:val="VT0(36):26"/>
				<v:ud v:nameU="msvThemeEffects" v:val="VT0(16):26"/>
			</v:userDefs>
			<v:textBlock v:margins="rect(4,4,4,4)" v:tabSpace="42.5197"/>
			<v:textRect cx="85.5258" cy="314.966" width="121.9" height="24.8035"/>
			<path d="M0 299.36 L160.31 328.61" class="st7"/>
			<rect v:rectContext="textBkgnd" x="30.1622" y="306.566" width="110.727" height="16.8" class="st9"/>
			<text x="30.16" y="319.17" class="st6" v:langID="1035"><v:paragraph v:horizAlign="1"/><v:tabList/>GET /email123.json</text>		</g>
		<g id="shape8-42" v:mID="8" v:groupContext="shape" v:layerMember="0" transform="translate(314.03,-99.2126)">
			<title>Dynamic connector.8</title>
			<v:userDefs>
				<v:ud v:nameU="visVersion" v:val="VT0(14):26"/>
				<v:ud v:nameU="msvThemeColors" v:val="VT0(36):26"/>
				<v:ud v:nameU="msvThemeEffects" v:val="VT0(16):26"/>
			</v:userDefs>
			<path d="M0 299.36 L-184.22 331.35" class="st7"/>
		</g>
		<g id="shape9-48" v:mID="9" v:groupContext="shape" transform="translate(94.252,-125.197)">
			<title>Ellipse</title>
			<desc>Ajax</desc>
			<v:userDefs>
				<v:ud v:nameU="visVersion" v:val="VT0(14):26"/>
				<v:ud v:nameU="msvThemeColors" v:val="VT0(36):26"/>
				<v:ud v:nameU="msvThemeEffects" v:val="VT0(16):26"/>
			</v:userDefs>
			<v:textBlock v:margins="rect(4,4,4,4)" v:tabSpace="42.5197"/>
			<v:textRect cx="24.8031" cy="282.821" width="43.41" height="28.937"/>
			<g id="shadow9-49" v:groupContext="shadow" v:shadowOffsetX="1.44" v:shadowOffsetY="-1.44" v:shadowType="1"
					transform="matrix(1,0,0,1,1.44,1.44)" class="st3">
				<path d="M0 282.82 A24.8031 16.5354 0 1 1 49.61 282.82 A24.8031 16.5354 0 1 1 0 282.82 Z" class="st4"/>
			</g>
			<path d="M0 282.82 A24.8031 16.5354 0 1 1 49.61 282.82 A24.8031 16.5354 0 1 1 0 282.82 Z" class="st5"/>
			<text x="12.69" y="287.02" class="st6" v:langID="1035"><v:paragraph v:horizAlign="1"/><v:tabList/>Ajax</text>		</g>
		<g id="shape10-54" v:mID="10" v:groupContext="shape" transform="translate(170.079,-68.0315)">
			<title>Rectangle</title>
			<desc>{ ”title”: ”Moi”, … }</desc>
			<v:userDefs>
				<v:ud v:nameU="visVersion" v:val="VT0(14):26"/>
				<v:ud v:nameU="msvThemeColors" v:val="VT0(36):26"/>
				<v:ud v:nameU="msvThemeEffects" v:val="VT0(16):26"/>
			</v:userDefs>
			<v:textBlock v:margins="rect(4,4,4,4)" v:tabSpace="42.5197"/>
			<v:textRect cx="43.937" cy="285.183" width="87.88" height="28.3465"/>
			<g id="shadow10-55" v:groupContext="shadow" v:shadowOffsetX="1.44" v:shadowOffsetY="-1.44" v:shadowType="1"
					transform="matrix(1,0,0,1,1.44,1.44)" class="st3">
				<rect x="0" y="271.01" width="87.874" height="28.3465" class="st4"/>
			</g>
			<rect x="0" y="271.01" width="87.874" height="28.3465" class="st5"/>
			<text x="5.67" y="288.18" class="st10" v:langID="1035"><v:paragraph v:horizAlign="1"/><v:tabList/>{ ”title”: ”Moi”, … }</text>		</g>
	</g>
</svg>
