<?xml version="1.0" encoding="UTF-8" standalone="no"?>
<!DOCTYPE svg PUBLIC "-//W3C//DTD SVG 1.0//EN" "http://www.w3.org/TR/2001/REC-SVG-20010904/DTD/svg10.dtd">
<!-- Generated by Microsoft Visio 11.0, SVG Export, v1.0 webapp.svg Page-1 -->
<svg xmlns="http://www.w3.org/2000/svg" xmlns:xlink="http://www.w3.org/1999/xlink" xmlns:ev="http://www.w3.org/2001/xml-events"
		xmlns:v="http://schemas.microsoft.com/visio/2003/SVGExtensions/" width="7.02301in" height="2.15943in"
		viewBox="0 0 505.657 155.479" xml:space="preserve" color-interpolation-filters="sRGB" class="st16">
	<v:documentProperties v:langID="1033" v:metric="true" v:viewMarkup="false">
		<v:userDefs>
			<v:ud v:nameU="msvSubprocessMaster" v:prompt="" v:val="VT4(Rectangle)"/>
			<v:ud v:nameU="msvNoAutoConnect" v:val="VT0(1):26"/>
		</v:userDefs>
	</v:documentProperties>

	<style type="text/css">
	<![CDATA[
		.st1 {visibility:visible}
		.st2 {fill:#cdcdcd;fill-opacity:0.5;stroke:#cdcdcd;stroke-linecap:round;stroke-linejoin:round;stroke-opacity:0.5;stroke-width:0.25}
		.st3 {fill:url(#grad30-6);stroke:#404040;stroke-linecap:round;stroke-linejoin:round;stroke-width:0.25}
		.st4 {fill:#000000;font-family:Symbol;font-size:1.33333em}
		.st5 {font-size:1em}
		.st6 {font-family:Calibri;font-size:1em}
		.st7 {fill:#cdcdcd;fill-opacity:0.5}
		.st8 {stroke:#cdcdcd;stroke-linecap:round;stroke-linejoin:round;stroke-opacity:0.5;stroke-width:0.25}
		.st9 {fill:url(#grad30-6)}
		.st10 {stroke:#404040;stroke-linecap:round;stroke-linejoin:round;stroke-width:0.25}
		.st11 {fill:#000000;font-family:Calibri;font-size:1.33333em}
		.st12 {stroke:#404040;stroke-linecap:round;stroke-linejoin:round;stroke-width:3}
		.st13 {fill:#ffffff;stroke:none;stroke-linecap:butt;stroke-width:7.2}
		.st14 {fill:#000000;font-family:Calibri;font-size:1.33333em;font-weight:bold}
		.st15 {fill:none;stroke:none;stroke-linecap:round;stroke-linejoin:round;stroke-width:0.25}
		.st16 {fill:none;fill-rule:evenodd;font-size:12px;overflow:visible;stroke-linecap:square;stroke-miterlimit:3}
	]]>
	</style>

	<defs id="Patterns_And_Gradients">
		<linearGradient id="grad30-6" v:fillPattern="30" v:foreground="#f0f0f0" v:background="#ffffff" x1="0" y1="1" x2="0" y2="0">
			<stop offset="0" style="stop-color:#f0f0f0;stop-opacity:1"/>
			<stop offset="1" style="stop-color:#ffffff;stop-opacity:1"/>
		</linearGradient>
	</defs>
	<g v:mID="0" v:index="1" v:groupContext="foregroundPage">
		<v:userDefs>
			<v:ud v:nameU="msvThemeColors" v:val="VT0(36):26"/>
			<v:ud v:nameU="msvThemeEffects" v:val="VT0(16):26"/>
			<v:ud v:nameU="msvThemeOrder" v:val="VT0(0):26"/>
		</v:userDefs>
		<title>Page-1</title>
		<v:pageProperties v:drawingScale="0.0393701" v:pageScale="0.0393701" v:drawingUnits="24" v:shadowOffsetX="8.50394"
				v:shadowOffsetY="-8.50394"/>
		<v:layer v:name="Web Site Map Shapes" v:index="0"/>
		<v:layer v:name="Flowchart" v:index="1"/>
		<v:layer v:name="Connector" v:index="2"/>
		<g id="shape27-1" v:mID="27" v:groupContext="shape" transform="translate(18.25,-19.69)">
			<title>Rounded rectangle</title>
			<desc>HTML CSS JavaScript</desc>
			<v:userDefs>
				<v:ud v:nameU="visVersion" v:val="VT0(14):26"/>
				<v:ud v:nameU="msvThemeColors" v:val="VT0(36):26"/>
				<v:ud v:nameU="msvThemeEffects" v:val="VT0(16):26"/>
			</v:userDefs>
			<v:textBlock v:margins="rect(4,4,4,4)" v:tabSpace="42.5197"/>
			<v:textRect cx="59.321" cy="111.156" width="118.65" height="88.6473"/>
			<g id="shadow27-2" v:groupContext="shadow" v:shadowOffsetX="1.44" v:shadowOffsetY="-1.44" v:shadowType="1"
					transform="matrix(1,0,0,1,1.44,1.44)" class="st1">
				<path d="M104.47 155.48 A14.1733 14.1733 -180 0 0 118.64 141.31 L118.64 81.01 A14.1733 14.1733 -180 0 0 104.47 66.83
							 L14.17 66.83 A14.1733 14.1733 -180 0 0 -0 81.01 L0 141.31 A14.1733 14.1733 -180 0 0 14.17 155.48 L104.47
							 155.48 Z" class="st2"/>
			</g>
			<path d="M104.47 155.48 A14.1733 14.1733 -180 0 0 118.64 141.31 L118.64 81.01 A14.1733 14.1733 -180 0 0 104.47 66.83
						 L14.17 66.83 A14.1733 14.1733 -180 0 0 -0 81.01 L0 141.31 A14.1733 14.1733 -180 0 0 14.17 155.48 L104.47
						 155.48 Z" class="st3"/>
			<text x="4" y="96.57" class="st4" v:langID="1035"><v:paragraph v:indentFirst="-18" v:indentLeft="18" v:bullet="1"/><v:tabList/><tspan
						class="st5" v:isBullet="true">·</tspan> <tspan class="st6">HTML<v:newlineChar/></tspan><tspan x="4"
						dy="1.215em" class="st5" v:isBullet="true">·</tspan> <tspan class="st6">CSS<v:newlineChar/></tspan><tspan
						x="4" dy="1.215em" class="st5" v:isBullet="true">·</tspan> <tspan class="st6">JavaScript</tspan></text>		</g>
		<g id="shape28-14" v:mID="28" v:groupContext="shape" transform="translate(273.368,-21.0917)">
			<title>Rounded rectangle.28</title>
			<v:userDefs>
				<v:ud v:nameU="visVersion" v:val="VT0(14):26"/>
				<v:ud v:nameU="msvThemeColors" v:val="VT0(36):26"/>
				<v:ud v:nameU="msvThemeEffects" v:val="VT0(16):26"/>
			</v:userDefs>
			<g id="shadow28-15" v:groupContext="shadow" v:shadowOffsetX="1.44" v:shadowOffsetY="-1.44" v:shadowType="1"
					transform="matrix(1,0,0,1,1.44,1.44)" class="st1">
				<path d="M99.21 155.48 A14.1733 14.1733 -180 0 0 113.39 141.31 L113.39 83.81 A14.1733 14.1733 -180 0 0 99.21 69.64
							 L14.17 69.64 A14.1733 14.1733 -180 0 0 -0 83.81 L0 141.31 A14.1733 14.1733 -180 0 0 14.17 155.48 L99.21
							 155.48 Z" class="st2"/>
			</g>
			<path d="M99.21 155.48 A14.1733 14.1733 -180 0 0 113.39 141.31 L113.39 83.81 A14.1733 14.1733 -180 0 0 99.21 69.64 L14.17
						 69.64 A14.1733 14.1733 -180 0 0 -0 83.81 L0 141.31 A14.1733 14.1733 -180 0 0 14.17 155.48 L99.21 155.48
						 Z" class="st3"/>
		</g>
		<g id="shape1-19" v:mID="1" v:groupContext="shape" v:layerMember="1" transform="translate(400.927,-25.7459)">
			<title>Database.7</title>
			<desc>Tietokanta</desc>
			<v:custProps>
				<v:cp v:nameU="Cost" v:lbl="Cost" v:type="7" v:format="@" v:langID="1033"/>
				<v:cp v:nameU="Duration" v:lbl="Duration" v:type="2" v:langID="1033"/>
				<v:cp v:nameU="Resources" v:lbl="Resources" v:langID="1033"/>
			</v:custProps>
			<v:userDefs>
				<v:ud v:nameU="visVersion" v:val="VT0(14):26"/>
				<v:ud v:nameU="msvThemeColors" v:val="VT0(36):26"/>
				<v:ud v:nameU="msvThemeEffects" v:val="VT0(16):26"/>
			</v:userDefs>
			<v:textBlock v:margins="rect(2,2,2,2)" v:tabSpace="42.5197"/>
			<v:textRect cx="42.5197" cy="129.967" width="85.04" height="51.0236"/>
			<g id="shadow1-20" v:groupContext="shadow" v:shadowOffsetX="1.44" v:shadowOffsetY="-1.44" v:shadowType="1"
					transform="matrix(1,0,0,1,1.44,1.44)" class="st1">
				<path d="M0 87.45 L0 146.98 A42.5197 8.50394 -180 1 0 85.04 146.98 L85.04 87.45 A42.5197 8.50394 -180 1 0 0 87.45
							 Z" class="st7"/>
				<path d="M0 87.45 L0 146.98 A42.5197 8.50394 -180 1 0 85.04 146.98 L85.04 87.45 A42.5197 8.50394 -180 1 0 0 87.45"
						class="st8"/>
				<path d="M0 87.45 A42.5197 8.50394 -180 1 0 85.04 87.45" class="st8"/>
				<path d="M0 91.7 A42.5197 8.50394 -180 1 0 85.04 91.7" class="st8"/>
				<path d="M0 95.95 A42.5197 8.50394 -180 0 0 85.04 95.95" class="st8"/>
			</g>
			<path d="M0 87.45 L0 146.98 A42.5197 8.50394 -180 1 0 85.04 146.98 L85.04 87.45 A42.5197 8.50394 -180 1 0 0 87.45 Z"
					class="st9"/>
			<path d="M0 87.45 L0 146.98 A42.5197 8.50394 -180 1 0 85.04 146.98 L85.04 87.45 A42.5197 8.50394 -180 1 0 0 87.45"
					class="st10"/>
			<path d="M0 87.45 A42.5197 8.50394 -180 1 0 85.04 87.45" class="st10"/>
			<path d="M0 91.7 A42.5197 8.50394 -180 1 0 85.04 91.7" class="st10"/>
			<path d="M0 95.95 A42.5197 8.50394 -180 0 0 85.04 95.95" class="st10"/>
			<text x="7.72" y="134.77" class="st11" v:langID="1035"><v:paragraph v:horizAlign="1"/><v:tabList/>Tietokanta</text>		</g>
		<g id="shape2-33" v:mID="2" v:groupContext="shape" v:layerMember="2" transform="translate(386.754,-56.927)">
			<title>Dynamic connector</title>
			<v:userDefs>
				<v:ud v:nameU="visVersion" v:val="VT0(14):26"/>
				<v:ud v:nameU="msvThemeColors" v:val="VT0(36):26"/>
				<v:ud v:nameU="msvThemeEffects" v:val="VT0(16):26"/>
			</v:userDefs>
			<path d="M0 148.39 L14.17 148.39" class="st12"/>
		</g>
		<g id="shape3-37" v:mID="3" v:groupContext="shape" v:layerMember="2" transform="translate(136.892,-56.927)">
			<title>Dynamic connector.3</title>
			<desc>HTTP</desc>
			<v:userDefs>
				<v:ud v:nameU="visVersion" v:val="VT0(14):26"/>
				<v:ud v:nameU="msvThemeColors" v:val="VT0(36):26"/>
				<v:ud v:nameU="msvThemeEffects" v:val="VT0(16):26"/>
			</v:userDefs>
			<v:textBlock v:margins="rect(4,4,4,4)" v:tabSpace="42.5197"/>
			<v:textRect cx="68.238" cy="148.393" width="80" height="27.2039"/>
			<path d="M0 148.39 L136.48 148.39" class="st12"/>
			<rect v:rectContext="textBkgnd" x="51.0116" y="138.793" width="34.4531" height="19.2005" class="st13"/>
			<text x="51.01" y="153.19" class="st14" v:langID="1035"><v:paragraph v:horizAlign="1"/><v:tabList/>HTTP</text>		</g>
		<g id="shape4-43" v:mID="4" v:groupContext="shape" transform="translate(18.25,-119.879)">
			<title>Sheet.4</title>
			<desc>Asiakas (web-selain)</desc>
			<v:userDefs>
				<v:ud v:nameU="msvThemeColors" v:val="VT0(36):26"/>
				<v:ud v:nameU="msvThemeEffects" v:val="VT0(16):26"/>
			</v:userDefs>
			<v:textBlock v:margins="rect(4,4,4,4)" v:tabSpace="42.5197"/>
			<v:textRect cx="79.1496" cy="147.479" width="158.3" height="16"/>
			<rect x="0" y="139.479" width="158.299" height="16" class="st15"/>
			<text x="13.3" y="152.28" class="st11" v:langID="1035"><v:paragraph v:horizAlign="1"/><v:tabList/>Asiakas (web-selain)</text>		</g>
		<g id="shape5-46" v:mID="5" v:groupContext="shape" transform="translate(293.431,-119.879)">
			<title>Sheet.5</title>
			<desc>Palvelin</desc>
			<v:userDefs>
				<v:ud v:nameU="msvThemeColors" v:val="VT0(36):26"/>
				<v:ud v:nameU="msvThemeEffects" v:val="VT0(16):26"/>
			</v:userDefs>
			<v:textBlock v:margins="rect(4,4,4,4)" v:tabSpace="42.5197"/>
			<v:textRect cx="79.1496" cy="147.479" width="158.3" height="16"/>
			<rect x="0" y="139.479" width="158.299" height="16" class="st15"/>
			<text x="53.88" y="152.28" class="st11" v:langID="1035"><v:paragraph v:horizAlign="1"/><v:tabList/>Palvelin</text>		</g>
	</g>
</svg>
